<svg width="16" height="16" viewBox="0 0 16 16" fill="none" xmlns="http://www.w3.org/2000/svg"><path fill-rule="evenodd" clip-rule="evenodd" d="M11.6148 20.9767C13.8904 23.2117 16.7505 24.3292 20.1953 24.3292C22.2831 24.3292 24.1665 23.9009 25.8457 23.0442L30.5292 28.2025L33.8681 25.278L29.3584 20.3112C31.3083 18.1547 32.2832 15.5878 32.2832 12.6106C32.2832 9.35029 31.1141 6.57186 28.7758 4.27529C26.4584 1.97873 23.6087 0.830444 20.2266 0.830444C16.8445 0.830444 13.9843 1.97873 11.6461 4.27529C9.3287 6.57186 8.17002 9.3708 8.17002 12.6721C8.17002 15.9529 9.31826 18.7211 11.6148 20.9767ZM25.3624 7.41257C26.7612 8.78641 27.4605 10.5191 27.4605 12.6106C27.4814 14.6816 26.7925 16.404 25.3937 17.7779C23.9949 19.1517 22.2726 19.8386 20.2266 19.8386C18.1806 19.8386 16.4583 19.1517 15.0595 17.7779C13.6816 16.404 12.9927 14.6816 12.9927 12.6106C12.9927 10.5191 13.692 8.78641 15.0908 7.41257C16.5105 6.01822 18.2224 5.32105 20.2266 5.32105C22.2308 5.32105 23.9427 6.01822 25.3624 7.41257ZM0.150391 1.23029V23.9601H4.81645V1.23029H0.150391Z" fill="#5E4BFA"></path></svg>